<svg xmlns="http://www.w3.org/2000/svg" viewBox="0 0 32 32" width="32" height="32">
  <rect width="32" height="32" fill="#1f2937"/>
  <path d="M16 4c-2.5 0-4.5 2-4.5 4.5 0 1-.5 2-1.5 2.5-1 .5-1.5 1.5-1.5 2.5 0 1.5 1 3 2.5 3.5 1.5.5 2.5 2 2.5 3.5 0 1-.5 2-1.5 2.5-1 .5-1.5 1.5-1.5 2.5 0 2.5 2 4.5 4.5 4.5s4.5-2 4.5-4.5c0-1 .5-2 1.5-2.5 1-.5 1.5-1.5 1.5-2.5 0-1.5-1-3-2.5-3.5-1.5-.5-2.5-2-2.5-3.5 0-1-.5-2-1.5-2.5-1-.5-1.5-1.5-1.5-2.5C20.5 6 18.5 4 16 4z" fill="#3b82f6"/>
  <path d="M12 8c-1 0-2 1-2 2 0 .5.5 1 1 1.5.5.5 1 1.5 1 2.5 0 1-.5 2-1 2.5-.5.5-1 1.5-1 2.5 0 1 1 2 2 2s2-1 2-2c0-1-.5-2-1-2.5-.5-.5-1-1.5-1-2.5 0-1 .5-2 1-2.5.5-.5 1-1.5 1-2.5 0-1-1-2-2-2z" fill="#60a5fa"/>
  <path d="M20 8c1 0 2 1 2 2 0 .5-.5 1-1 1.5-.5.5-1 1.5-1 2.5 0 1 .5 2 1 2.5.5.5 1 1.5 1 2.5 0 1-1 2-2 2s-2-1-2-2c0-1 .5-2 1-2.5.5-.5 1-1.5 1-2.5 0-1-.5-2-1-2.5-.5-.5-1-1.5-1-2.5 0-1 1-2 2-2z" fill="#60a5fa"/>
</svg>